# xmcd CD database file
#
# Track frame offsets:
#	150
#	12020
#	30934
#	53198
#	66511
#	81006
#	94233
#	107767
#	123054
#	147261
#	164958
#	182770
#	203198
#	225584
#
# Disc length: 3327 seconds
#
# Revision: 0
# Processed by: cddbd v1.5.2PL0 Copyright (c) Steve Scherf et al.
# Submitted via: CDex 1.70beta2
#
DISCID=b90cfd0e
DTITLE=Patrick Sweany - I Wanna Tell You
DYEAR=1999
DGENRE=Blues
TTITLE0=Bring the Money Home
TTITLE1=Everyday is Saturday Night
TTITLE2=I Wanna Tell You
TTITLE3=Sleepy Town
TTITLE4=Blues All the Time
TTITLE5=Chelsea Swing
TTITLE6=Reel and Rock
TTITLE7=Always Thinking of You
TTITLE8=All Night Boogie
TTITLE9=Southern Blues
TTITLE10=Bad Luck Bad Luck
TTITLE11=My 4 Reasons (Ikey Robinson)
TTITLE12=She's Got to Go (Elmore James)
TTITLE13=Back to Arkansas
EXTD=YEAR: 1999
EXTT0=
EXTT1=
EXTT2=
EXTT3=
EXTT4=
EXTT5=
EXTT6=
EXTT7=
EXTT8=
EXTT9=
EXTT10=
EXTT11=
EXTT12=
EXTT13=
PLAYORDER=
